<svg width="103" height="20" viewBox="0 0 103 20" fill="none" xmlns="http://www.w3.org/2000/svg">
<path d="M12.386 4.33H3.498V9.258H11.242V12.734H3.498V19.4H0V0.854H12.386V4.33ZM15.2539 19.4V6.288H18.4879V19.4H15.2539ZM15.2539 0.787999H18.4879V4.022H15.2539V0.787999ZM27.2162 19.4C25.8962 19.4 22.3102 19.334 22.3102 14.912V8.884H20.9902V6.266H22.3102V3.516H25.5662V6.266H27.1722V8.884H25.5662V14.582C25.5662 15.924 26.5782 16.078 27.0182 16.078C27.1282 16.078 27.2162 16.056 27.2162 16.056V19.4Z" fill="white"/>
<path d="M30.0781 0.854H37.7561C41.4741 0.854 43.5421 3.45 43.5421 6.64C43.5421 9.852 41.4741 12.448 37.7561 12.448H33.5761V19.4H30.0781V0.854ZM33.5761 8.972H37.7561C39.5381 8.972 40.0661 7.938 40.0661 6.64C40.0661 5.364 39.5381 4.33 37.7561 4.33H33.5761V8.972ZM52.4783 6.134C55.8223 6.134 58.5503 8.73 58.5503 12.866C58.5503 17.002 55.8223 19.554 52.4783 19.554C49.1343 19.554 46.4062 17.002 46.4062 12.866C46.4062 8.73 49.1343 6.134 52.4783 6.134ZM52.4783 16.32C54.0403 16.32 55.3163 15.198 55.3163 12.866C55.3163 10.512 54.0403 9.368 52.4783 9.368C50.9163 9.368 49.6402 10.512 49.6402 12.866C49.6402 15.198 50.9163 16.32 52.4783 16.32ZM74.8999 6.288H78.0459L74.3499 19.4H71.1819L69.0259 11.766L66.8699 19.4H63.7019L60.0059 6.288H63.1519L65.3079 15.22L67.4199 6.288H70.6319L72.7879 15.22L74.8999 6.288ZM85.5212 6.134C88.4472 6.134 91.2632 8.334 91.2632 13.108C91.2632 13.394 91.2632 13.702 91.2412 14.01H82.7932C82.8152 14.098 82.8372 14.164 82.8592 14.252C83.2552 15.638 84.2892 16.32 85.5212 16.32C86.3792 16.32 87.3032 15.968 87.8312 15.264L90.5372 17.024C89.4372 18.63 87.5232 19.554 85.5212 19.554C82.1552 19.554 79.4492 17.002 79.4492 12.866C79.4492 8.73 82.1552 6.134 85.5212 6.134ZM82.9472 11.348H87.8532C87.5672 10.028 86.5772 9.368 85.4332 9.368C84.2892 9.368 83.2772 10.094 82.9472 11.348ZM102.387 10.006C102.035 9.456 101.441 9.192 100.759 9.192C99.5268 9.192 98.2508 10.182 97.7008 11.084V19.4H94.4668V6.288H97.1288L97.7008 7.476C98.8008 6.618 99.9668 5.936 101.463 5.936C101.727 5.936 102.189 6.024 102.387 6.112V10.006Z" fill="#FFC907"/>
</svg>
