<svg class="f0hiXs2f GzfkS1tR" tabindex="" xmlns="http://www.w3.org/2000/svg" viewBox="0 0 16 16" role="img" aria-label="Question mark" style="color:'#acb0ee'">
  <path d="M8 0C3.57369 0 0 3.57369 0 8C0 12.4263 3.57369 16 8 16C12.4263 16 16 12.4263 16 8C16 3.57369 12.4263 0 8 0ZM8 12.4444C7.46667 12.4444 7.04028 12.0181 7.04028 11.4847C7.04028 10.9514 7.46667 10.525 8 10.525C8.53333 10.525 8.95972 10.9514 8.95972 11.4847C8.95972 12.0181 8.53333 12.4444 8 12.4444ZM10.1687 7.04036C10.0618 7.18272 9.93746 7.32508 9.81316 7.44939C9.72427 7.53828 9.61732 7.62716 9.49301 7.76953C9.35065 7.89384 9.24441 8.00078 9.15552 8.10702C9.06663 8.19591 8.97774 8.2848 8.92427 8.35563C8.76454 8.56882 8.69301 8.85355 8.71108 9.12021V9.67161H7.32427V8.92509C7.30621 8.67648 7.34232 8.42716 7.44857 8.17856C7.59093 7.94731 7.75065 7.73412 7.96384 7.53828L8.85273 6.64939C9.04857 6.4362 9.13746 6.16953 9.13746 5.8848C9.13746 5.60007 9.03052 5.33341 8.83538 5.13828C8.63954 4.94244 8.35552 4.8362 8.0708 4.8362C7.78607 4.81814 7.50205 4.92508 7.28886 5.12092C7.07567 5.31676 6.95136 5.60078 6.9333 5.88551H5.44025C5.49372 5.22788 5.79581 4.60565 6.29373 4.17856C6.809 3.75218 7.44928 3.53828 8.12502 3.55634C8.7653 3.52092 9.40487 3.73412 9.90279 4.14315C10.3653 4.53412 10.5958 5.10286 10.5958 5.81397C10.5778 6.25772 10.4354 6.70217 10.1688 7.04036H10.1687Z">
  </path>
</svg>