<svg width="28" height="27" viewBox="0 0 28 27" fill="none" xmlns="http://www.w3.org/2000/svg">
<path d="M27.927 10.2031C27.8374 9.92385 27.6683 9.67733 27.4405 9.49423C27.2127 9.31113 26.9364 9.19955 26.6461 9.1734L18.5652 8.4349L15.3699 0.907868C15.2551 0.638313 15.0642 0.408602 14.8209 0.247218C14.5776 0.0858338 14.2926 -0.000124876 14.0011 1.36162e-07C13.7097 0.000125148 13.4248 0.0863285 13.1816 0.247921C12.9384 0.409514 12.7477 0.639389 12.6331 0.909042L9.43788 8.4349L1.35583 9.1734C1.06521 9.19937 0.788597 9.31079 0.560424 9.49379C0.33225 9.67679 0.162593 9.92329 0.0725707 10.2026C-0.0174519 10.4819 -0.0238639 10.7817 0.0541327 11.0647C0.132129 11.3476 0.29109 11.6012 0.511227 11.7939L6.61943 17.1853L4.81823 25.1702C4.75347 25.4561 4.77353 25.7548 4.87593 26.0292C4.97833 26.3037 5.15855 26.5419 5.39424 26.7142C5.62992 26.8865 5.91069 26.9853 6.2017 26.9985C6.49271 27.0116 6.78116 26.9385 7.03123 26.7881L14.0015 22.5955L20.9695 26.7881C21.2197 26.9383 21.5081 27.0113 21.7991 26.998C22.0901 26.9848 22.3708 26.886 22.6065 26.7138C22.8422 26.5415 23.0225 26.3035 23.1251 26.0291C23.2277 25.7548 23.2481 25.4561 23.1837 25.1702L21.3825 17.1853L27.4907 11.7951C27.9398 11.3995 28.1113 10.7748 27.927 10.2031Z" fill="#FFD707"/>
</svg>
