<svg width="34" height="34" viewBox="0 0 34 34" fill="none" xmlns="http://www.w3.org/2000/svg">
<path d="M29.2281 7.55555L30.6199 8.94737C31.4152 9.74269 32.6082 9.74269 33.4035 8.94737C34.1988 8.15205 34.1988 6.95906 33.4035 6.16374L32.0117 4.77193L33.4035 3.38012C34.1988 2.58479 34.1988 1.39181 33.4035 0.596491C32.6082 -0.19883 31.4152 -0.19883 30.6199 0.596491L29.2281 1.9883L27.8363 0.596491C27.0409 -0.19883 25.848 -0.19883 25.0526 0.596491C24.2573 1.39181 24.2573 2.58479 25.0526 3.38012L26.4444 4.77193L22.269 0.596491C21.4737 -0.19883 20.2807 -0.19883 19.4854 0.596491C18.6901 1.39181 18.6901 2.58479 19.4854 3.38012L23.6608 7.55555L7.55556 23.6608L3.38012 19.4854C2.5848 18.6901 1.39181 18.6901 0.596491 19.4854C-0.19883 20.2807 -0.19883 21.4737 0.596491 22.269L4.77193 26.4444L3.38012 25.0526C2.5848 24.2573 1.39181 24.2573 0.596491 25.0526C-0.19883 25.848 -0.19883 27.0409 0.596491 27.8363L1.9883 29.2281L0.596491 30.6199C-0.19883 31.4152 -0.19883 32.6082 0.596491 33.4035C1.39181 34.1988 2.5848 34.1988 3.38012 33.4035L4.77193 32.0117L6.16374 33.4035C6.95906 34.1988 8.15205 34.1988 8.94737 33.4035C9.74269 32.6082 9.74269 31.4152 8.94737 30.6199L7.55556 29.2281L11.731 33.4035C12.5263 34.1988 13.7193 34.1988 14.5146 33.4035C15.3099 32.6082 15.3099 31.4152 14.5146 30.6199L10.3392 26.4444L26.4444 10.3392L30.6199 14.5146C31.4152 15.3099 32.6082 15.3099 33.4035 14.5146C34.1988 13.7193 34.1988 12.5263 33.4035 11.731L29.2281 7.55555Z" fill="#FFC907"/>
</svg>
